<svg width="144" height="144" viewBox="0 0 144 144" fill="none" xmlns="http://www.w3.org/2000/svg">
<rect width="144" height="144" rx="24" fill="#007AFF"/>
<path fill-rule="evenodd" clip-rule="evenodd" d="M78.0009 26.3913C79.8888 27.0052 81.1668 28.7648 81.1668 30.75V58.25H104.084C105.807 58.25 107.386 59.2173 108.168 60.7535C108.95 62.2897 108.804 64.1349 107.79 65.5291L71.1236 115.946C69.9559 117.551 67.8874 118.223 65.9995 117.609C64.1116 116.995 62.8335 115.235 62.8335 113.25V85.75H39.9168C38.1929 85.75 36.6148 84.7827 35.8326 83.2465C35.0503 81.7103 35.1962 79.8651 36.2101 78.4709L72.8768 28.0542C74.0445 26.4487 76.113 25.7774 78.0009 26.3913ZM48.9175 76.5833H67.4168C69.9482 76.5833 72.0002 78.6354 72.0002 81.1667V99.1554L95.0829 67.4167H76.5835C74.0522 67.4167 72.0002 65.3646 72.0002 62.8333V44.8446L48.9175 76.5833Z" fill="white"/>
<path d="M73.0002 41L46.5002 77.5L47.5002 80.5H64.0002L66.5002 89.5L71.5002 102.5L99.5002 65.5L76.0002 63.5L73.0002 41Z" fill="white"/>
</svg>
